<svg xmlns="http://www.w3.org/2000/svg" version="1.1" xmlns:xlink="http://www.w3.org/1999/xlink" xmlns:svgjs="http://svgjs.dev/svgjs" width="2000" height="1252" viewBox="0 0 2000 1252"><g transform="matrix(1,0,0,1,-1.2121212121211329,-2.01935483870966)"><svg viewBox="0 0 396 248" data-background-color="#ffffff" preserveAspectRatio="xMidYMid meet" height="1252" width="2000" xmlns="http://www.w3.org/2000/svg" xmlns:xlink="http://www.w3.org/1999/xlink"><g id="tight-bounds" transform="matrix(1,0,0,1,0.2400000000000091,0.4000000000000057)"><svg viewBox="0 0 395.52 247.2" height="247.2" width="395.52"><g><svg></svg></g><g><svg viewBox="0 0 395.52 247.2" height="247.2" width="395.52"><g transform="matrix(1,0,0,1,75.54432,50.568728132172424)"><svg viewBox="0 0 244.43135999999998 146.06254373565514" height="146.06254373565514" width="244.43135999999998"><g><svg viewBox="0 0 244.43135999999998 146.06254373565514" height="146.06254373565514" width="244.43135999999998"><g><svg viewBox="0 0 255.65542088762467 152.7696" height="146.06254373565514" width="244.43135999999998"><g transform="matrix(1,0,0,1,106.86747027034073,0)"><svg viewBox="0 0 148.78795061728394 152.7696" height="152.7696" width="148.78795061728394"><g id="textblocktransform"><svg viewBox="0 0 148.78795061728394 152.7696" height="152.7696" width="148.78795061728394" id="textblock"><g><svg viewBox="0 0 148.78795061728394 152.7696" height="152.7696" width="148.78795061728394"><g transform="matrix(1,0,0,1,0,0)"><svg width="148.78795061728394" viewBox="1.71 -35.69 52 53.39" height="152.7696" data-palette-color="#233565"><path d="M19.14-2.91L19.14-2.91Q17.55-0.56 15.63 0.72 13.7 2 11.4 2L11.4 2Q9.08 2 7.28 0.89 5.47-0.22 4.24-2.26 3-4.3 2.36-7.17 1.71-10.03 1.71-13.55L1.71-13.55Q1.71-16.04 2.22-18.65 2.73-21.26 3.72-23.72 4.71-26.17 6.13-28.36 7.54-30.54 9.35-32.17 11.16-33.79 13.33-34.74 15.5-35.69 17.99-35.69L17.99-35.69Q19.34-35.69 20.51-35.27 21.68-34.84 22.52-34.03 23.36-33.23 23.85-32.08 24.34-30.93 24.34-29.49L24.34-29.49Q24.34-28.13 23.88-26.86 23.41-25.59 22.62-24.46 21.83-23.34 20.78-22.41 19.73-21.48 18.58-20.81 17.43-20.14 16.24-19.78 15.04-19.41 13.94-19.41L13.94-19.41Q13.04-19.41 12.39-19.98 11.74-20.56 11.74-21.8L11.74-21.8Q11.74-22.07 11.78-22.39 11.82-22.71 11.89-22.97 11.96-23.24 12.06-23.43 12.16-23.61 12.3-23.61L12.3-23.61Q12.43-23.61 12.54-23.52 12.65-23.44 12.83-23.35 13.01-23.27 13.33-23.18 13.65-23.1 14.21-23.1L14.21-23.1Q15.16-23.1 16.25-23.61 17.33-24.12 18.26-24.98 19.19-25.83 19.8-26.94 20.41-28.05 20.41-29.25L20.41-29.25Q20.41-29.69 20.25-30.18 20.09-30.66 19.74-31.08 19.38-31.49 18.8-31.77 18.21-32.06 17.36-32.06L17.36-32.06Q15.8-32.06 14.33-31.3 12.87-30.54 11.6-29.21 10.33-27.88 9.27-26.1 8.2-24.32 7.45-22.27 6.69-20.21 6.27-17.99 5.86-15.77 5.86-13.6L5.86-13.6Q5.86-10.89 6.29-8.73 6.71-6.57 7.47-5.05 8.23-3.54 9.27-2.72 10.3-1.9 11.5-1.9L11.5-1.9Q12.77-1.9 13.84-2.43 14.92-2.95 15.77-3.83 16.63-4.71 17.26-5.86 17.9-7.01 18.32-8.23 18.75-9.45 18.97-10.66 19.19-11.87 19.19-12.89L19.19-12.89Q19.19-13.28 19.14-13.78 19.09-14.28 19.09-14.55L19.09-14.55Q19.09-14.92 19.23-15.11 19.36-15.31 19.58-15.41 19.8-15.5 20.09-15.53 20.39-15.55 20.7-15.55L20.7-15.55Q21.04-15.55 21.48-15.41 21.92-15.26 22.33-15 22.73-14.75 23.01-14.4 23.29-14.06 23.29-13.65L23.29-13.65Q23.1-11.62 23.05-9.8 23-7.98 23-6.1L23-6.1Q23-4.35 23.02-2.44 23.05-0.54 23.05 1.76L23.05 1.76Q23.75 1.64 24.43 1.59 25.1 1.54 25.71 1.49L25.71 1.49Q26.59 1.44 26.84 2.04 27.1 2.64 26.92 3.39 26.73 4.15 26.22 4.79 25.71 5.42 25.05 5.44L25.05 5.44Q24.49 5.44 23.99 5.47 23.49 5.49 22.95 5.54L22.95 5.54Q22.88 6.96 22.73 8.4 22.58 9.84 22.25 11.19 21.92 12.55 21.4 13.73 20.87 14.92 20.09 15.8 19.31 16.67 18.21 17.19 17.11 17.7 15.65 17.7L15.65 17.7Q14.38 17.7 13.34 17.25 12.3 16.8 11.57 16 10.84 15.21 10.45 14.14 10.06 13.06 10.06 11.79L10.06 11.79Q10.06 9.89 10.84 8.41 11.62 6.93 12.9 5.81 14.18 4.69 15.84 3.91 17.5 3.13 19.24 2.59L19.24 2.59 19.24 2.1Q19.24 0.49 19.19-0.76 19.14-2 19.14-2.91ZM15.75 13.84L15.75 13.84Q16.58 13.84 17.18 13.23 17.77 12.62 18.16 11.57 18.55 10.52 18.77 9.17 18.99 7.81 19.09 6.3L19.09 6.3Q16.6 7.08 15.27 8.45 13.94 9.81 13.94 11.69L13.94 11.69Q13.94 12.84 14.47 13.34 14.99 13.84 15.75 13.84ZM49.22-4.71L49.22-4.81Q48.44-3.52 47.56-2.38 46.68-1.25 45.71-0.4 44.75 0.44 43.72 0.92 42.7 1.39 41.62 1.39L41.62 1.39Q41.09 1.39 40.49 1.17 39.89 0.95 39.39 0.45 38.89-0.05 38.56-0.88 38.23-1.71 38.23-2.95L38.23-2.95 38.23-31.1Q36.55-30.88 35.04-30.15 33.54-29.42 32.43-28.15 31.32-26.88 30.67-25.07 30.03-23.27 30.03-20.9L30.03-20.9Q30.03-19.38 30.34-18.18 30.66-16.97 31.1-16.13 31.54-15.28 31.98-14.82 32.42-14.36 32.66-14.36L32.66-14.36Q32.88-14.36 33.08-14.45 33.27-14.55 33.47-14.55L33.47-14.55Q33.86-14.55 33.86-13.94L33.86-13.94Q33.86-13.16 33.51-12.44 33.15-11.72 32.61-11.27 32.08-10.82 31.44-10.69 30.81-10.57 30.27-10.96L30.27-10.96Q29.61-11.4 28.87-12.3 28.12-13.21 27.5-14.49 26.88-15.77 26.47-17.38 26.07-18.99 26.07-20.9L26.07-20.9Q26.07-23.54 26.71-25.62 27.34-27.71 28.4-29.27 29.47-30.83 30.88-31.93 32.3-33.03 33.86-33.72 35.42-34.4 37.03-34.7 38.64-35.01 40.11-35.01L40.11-35.01Q40.5-35.01 40.87-34.85 41.23-34.69 41.5-34.41 41.77-34.13 41.94-33.74 42.11-33.35 42.11-32.91L42.11-32.91 42.11-3.25Q42.11-2.76 42.27-2.65 42.43-2.54 42.58-2.54L42.58-2.54Q42.94-2.54 43.58-3.06 44.21-3.59 44.96-4.46 45.7-5.32 46.46-6.46 47.21-7.59 47.82-8.81 48.44-10.03 48.83-11.25 49.22-12.48 49.22-13.55L49.22-13.55 49.22-32.54Q49.22-33.25 49.12-33.57 49.02-33.89 49.02-34.16L49.02-34.16Q49.02-34.52 49.4-34.77 49.78-35.01 50.31-35.01L50.31-35.01Q51.56-35.01 52.34-34.36 53.12-33.72 53.12-32.79L53.12-32.79 53.12-11.11Q53.12-8.64 53.16-6.85 53.2-5.05 53.27-3.77 53.34-2.49 53.42-1.62 53.49-0.76 53.56-0.15L53.56-0.15Q53.71 0.07 53.71 0.2L53.71 0.2Q53.71 0.44 53.46 0.66 53.22 0.88 52.85 1.04 52.49 1.2 52.04 1.29 51.58 1.39 51.17 1.39L51.17 1.39Q50.51 1.39 50.14 1.01 49.78 0.63 49.59-0.13 49.41-0.9 49.34-2.05 49.27-3.2 49.22-4.71L49.22-4.71Z" opacity="1" transform="matrix(1,0,0,1,0,0)" fill="#ffffff" class="wordmark-text-0" data-fill-palette-color="primary" id="text-0"></path></svg></g></svg></g></svg></g></svg></g><g transform="matrix(1,0,0,1,0,35.508074434746504)"><svg viewBox="0 0 70.80223418074074 81.75345113050699" height="81.75345113050699" width="70.80223418074074"><g><svg xmlns="http://www.w3.org/2000/svg" xmlns:xlink="http://www.w3.org/1999/xlink" version="1.1" x="0" y="0" viewBox="9.547 3.29 80.906 93.41999999999999" enable-background="new 0 0 100 100" xml:space="preserve" height="81.75345113050699" width="70.80223418074074" class="icon-icon-0" data-fill-palette-color="accent" id="icon-0"><g fill="#233565" data-fill-palette-color="accent"><path d="M31.112 39.094V60.906L49.999 71.81 68.889 60.907V39.094L49.999 28.189zM60.925 56.308L49.999 62.615 39.075 56.308V43.692L49.999 37.384 60.925 43.692z" fill="#ffffff" data-fill-palette-color="accent"></path><path d="M49.999 3.29L9.547 26.646V73.355L49.999 96.71 90.453 73.355V26.646zM82.19 68.584L49.999 87.169 17.811 68.584V31.414L49.999 12.829 82.19 31.414z" fill="#ffffff" data-fill-palette-color="accent"></path><path d="M20.368 32.89V67.108L49.999 84.216 79.633 67.108V32.89L49.999 15.782zM71.446 62.383L49.999 74.763 28.555 62.383V37.618L49.999 25.236 71.446 37.618z" fill="#ffffff" data-fill-palette-color="accent"></path></g></svg></g></svg></g></svg></g></svg></g></svg></g><g><path d="M0 123.6c0-68.262 55.338-123.6 123.6-123.6 32.645 0 62.333 12.655 84.427 33.328l-9.969 0c-20.231-16.706-46.172-26.742-74.458-26.742-64.625 0-117.014 52.389-117.014 117.014 0 64.625 52.389 117.014 117.014 117.014 28.286 0 54.227-10.036 74.458-26.742l9.969 0c-22.094 20.672-51.783 33.328-84.427 33.328-68.262 0-123.6-55.338-123.6-123.6z" fill="#ffffff" stroke="transparent" data-fill-palette-color="tertiary"></path></g></svg></g><defs></defs></svg><rect width="395.52" height="247.2" fill="none" stroke="none" visibility="hidden"></rect></g></svg></g></svg>